<svg xmlns="http://www.w3.org/2000/svg" viewBox="0 0 16.821 16.825">
  <defs>
    <style>
      .cls-1 {
        fill: #2f79ef;
      }
    </style>
  </defs>
  <path id="_ionicons_svg_ios-cube" class="cls-1" d="M63.886,51.3l-7.244-3.248a.562.562,0,0,0-.457,0L48.938,51.3a.34.34,0,0,0-.016.6L56.149,55.7a.551.551,0,0,0,.526,0L63.9,51.895A.34.34,0,0,0,63.886,51.3Zm-6.5,13.484,7.284-3.854a.327.327,0,0,0,.146-.275V53.173a.3.3,0,0,0-.433-.287L57.1,56.639a.319.319,0,0,0-.17.287V64.5a.305.305,0,0,0,.457.279ZM48,53.173v7.474a.327.327,0,0,0,.146.275l7.284,3.854a.3.3,0,0,0,.453-.275V56.926a.319.319,0,0,0-.17-.287l-7.28-3.753A.3.3,0,0,0,48,53.173Z" transform="translate(-48 -48)"/>
</svg>
