<svg xmlns="http://www.w3.org/2000/svg" viewBox="0 0 16.314 18.662">
  <defs>
    <style>
      .cls-1 {
        fill: #707070;
        stroke: #707070;
        stroke-width: 0.5px;
      }
    </style>
  </defs>
  <g id="noun_cube_118782" transform="translate(0.25 0.251)">
    <g id="Group_2" data-name="Group 2">
      <path id="Path_53" data-name="Path 53" class="cls-1" d="M26.836,14.357a.214.214,0,0,0-.072.021l-7.7,4.434h-.007c-.022.014-.036.036-.058.05a.286.286,0,0,0-.029.05h0a.025.025,0,0,1-.007.014v.014a.349.349,0,0,0-.007.086v8.847a.22.22,0,0,0,.1.179l7.667,4.413.015.015.007.007h.014c.007.007.007.007.015.007h.007a.007.007,0,0,0,.007.007l.007.007h.022a.025.025,0,0,0,.015.007h.021a.186.186,0,0,0,.108-.029.052.052,0,0,0,.029-.014l7.681-4.42a.22.22,0,0,0,.1-.179V18.956a.351.351,0,0,0-.021-.05V18.9a.183.183,0,0,0-.079-.086l-7.709-4.434a.2.2,0,0,0-.129-.021Zm.029.429,7.308,4.206L26.865,23.2l-7.293-4.206,7.293-4.206ZM19.37,19.342l7.293,4.213v8.411L19.37,27.753V19.342Zm15,0v8.411l-7.3,4.212V23.555l7.3-4.213Z" transform="translate(-18.961 -14.355)"/>
    </g>
  </g>
</svg>
