<svg xmlns="http://www.w3.org/2000/svg" viewBox="0 0 16.784 16.789">
  <defs>
    <style>
      .cls-1 {
        fill: #2f79ef;
      }
    </style>
  </defs>
  <path id="_ionicons_svg_ios-settings" class="cls-1" d="M79.4,72.392a2.16,2.16,0,0,1,1.386-2.015,8.561,8.561,0,0,0-1.036-2.5,2.189,2.189,0,0,1-.879.188A2.155,2.155,0,0,1,76.9,65.036,8.535,8.535,0,0,0,74.407,64a2.158,2.158,0,0,1-4.03,0,8.561,8.561,0,0,0-2.5,1.036,2.155,2.155,0,0,1-1.971,3.033,2.118,2.118,0,0,1-.879-.188A8.75,8.75,0,0,0,64,70.381a2.159,2.159,0,0,1,0,4.03,8.561,8.561,0,0,0,1.036,2.5,2.156,2.156,0,0,1,2.845,2.845,8.611,8.611,0,0,0,2.5,1.036,2.154,2.154,0,0,1,4.021,0,8.561,8.561,0,0,0,2.5-1.036,2.158,2.158,0,0,1,2.845-2.845,8.61,8.61,0,0,0,1.036-2.5A2.17,2.17,0,0,1,79.4,72.392Zm-6.967,3.492a3.5,3.5,0,1,1,3.5-3.5A3.5,3.5,0,0,1,72.431,75.884Z" transform="translate(-64 -64)"/>
</svg>
