<svg id="noun_grid_1850568" xmlns="http://www.w3.org/2000/svg" viewBox="0 0 10.151 10.151">
  <defs>
    <style>
      .cls-1 {
        fill: #707070;
      }
    </style>
  </defs>
  <g id="Group_27" data-name="Group 27" transform="translate(0 0)">
    <g id="Group_26" data-name="Group 26" transform="translate(0 0)">
      <path id="Path_79" data-name="Path 79" class="cls-1" d="M14.2,4.8H5.35a.65.65,0,0,0-.65.65V14.3a.65.65,0,0,0,.65.65H14.2a.65.65,0,0,0,.65-.65V5.45A.643.643,0,0,0,14.2,4.8Zm.2.639v4.2H10V5.248h4.2A.192.192,0,0,1,14.4,5.439ZM5.35,5.248h4.2V9.64H5.159v-4.2A.182.182,0,0,1,5.35,5.248Zm-.19,9.042v-4.2H9.552v4.4H5.35A.192.192,0,0,1,5.159,14.29Zm9.042.2H10v-4.4h4.4v4.2A.2.2,0,0,1,14.2,14.492Z" transform="translate(-4.7 -4.8)"/>
    </g>
  </g>
</svg>
