<svg xmlns="http://www.w3.org/2000/svg" viewBox="0 0 16.799 13.606">
  <defs>
    <style>
      .cls-1 {
        fill: #707070;
        stroke: #838383;
        stroke-width: 0.5px;
      }
    </style>
  </defs>
  <g id="Group_4" data-name="Group 4" transform="translate(0.25 0.25)">
    <g id="noun_Image_1372946" transform="translate(0 0)">
      <g id="Group">
        <path id="Compound_Path" data-name="Compound Path" class="cls-1" d="M19.158,13.39H6.081A1.611,1.611,0,0,0,4.47,15v9.884A1.611,1.611,0,0,0,6.081,26.5H19.158a1.611,1.611,0,0,0,1.611-1.611V15A1.611,1.611,0,0,0,19.158,13.39Zm0,12.748H6.081a1.253,1.253,0,0,1-1.253-1.253V21.6a.168.168,0,0,0,.013.029.179.179,0,0,0,.249.043l3.771-2.662a.9.9,0,0,1,1.16.111l3.759,3.9a1.253,1.253,0,0,0,1.507.229l5.125-2.819v4.453a1.253,1.253,0,0,1-1.253,1.253Zm1.253-6.1a.179.179,0,0,0-.066.021l-5.23,2.878a.9.9,0,0,1-1.074-.165l-3.748-3.906a1.253,1.253,0,0,0-1.625-.156L4.883,21.375a.179.179,0,0,0-.055.07V15a1.253,1.253,0,0,1,1.253-1.253H19.158A1.253,1.253,0,0,1,20.411,15Z" transform="translate(-4.47 -13.39)"/>
        <path id="Compound_Path-2" data-name="Compound Path" class="cls-1" d="M54.087,26.47a1.867,1.867,0,1,0,1.867,1.867A1.867,1.867,0,0,0,54.087,26.47Zm0,3.378A1.509,1.509,0,1,1,55.6,28.339a1.509,1.509,0,0,1-1.509,1.509Z" transform="translate(-43.673 -24.129)"/>
      </g>
    </g>
  </g>
</svg>
