<svg id="Group_3" data-name="Group 3" xmlns="http://www.w3.org/2000/svg" viewBox="0 0 16.299 12.45">
  <defs>
    <style>
      .cls-1 {
        fill: #707070;
      }
    </style>
  </defs>
  <g id="noun_Car_2051567">
    <path id="Path_55" data-name="Path 55" class="cls-1" d="M22.482,23.807a.1.1,0,0,0,0-.021.127.127,0,0,0-.006-.018.117.117,0,0,0-.011-.021.082.082,0,0,0-.011-.016l-.1-.116h0l-.005-.006L22.34,23.6a.1.1,0,0,0-.017-.013l-1.094-.742-.7-.551,0,0-.005,0-.415-.278h0l-.049-.034-1.64-2.585a.13.13,0,0,0-.036-.037l-.5-.362,0,0h0l-.01-.006-1.685-.915,0,0h0l-1.484-.722-.01,0-.012,0L14.19,17.2l-1.157-.432a.1.1,0,0,0-.024-.006.113.113,0,0,0-.021,0h-.027l-.473.1-.018.006-.017.007-.678.371-.239-.124-.005,0h0l-.007,0-.011,0-.015,0-.02,0h-.01l-.017,0-.015,0,0,0-.009,0h0l-.017.009L9.053,18.67,6.578,19.911l-.013.008-.009.006-.008.007-.011.012-.007.01-.009.016-.005.012a.129.129,0,0,0,0,.016.1.1,0,0,0,0,.017.107.107,0,0,0,0,.015.094.094,0,0,0,0,.02.1.1,0,0,0,.005.021l0,0,0,.01a.1.1,0,0,0,.011.018l.006.008,0,.005.315.335-.048.027-.084-.048,0,0L6.7,20.415l-.01,0-.013-.005L6.648,20.4l-.011,0-.013,0-.028,0H6.569l-.028,0-.011,0-.01,0-.029.009-.01,0-.012,0-.026.013-.007,0-.007,0,0,0-.026.018-.007.005-.008.007-.024.021-.006.006L6.35,20.5l-.022.026,0,0-.006.008-.019.028,0,.006,0,.006-.018.033,0,.006,0,.007-.014.034a.1.1,0,0,0-.005.018.116.116,0,0,0,0,.02.135.135,0,0,0,0,.018.1.1,0,0,0,0,.02l.132.656a.118.118,0,0,0,0,.016l0,.01.023.053,0,.008a.084.084,0,0,0,.008.013l.027.041.007.009.142.925a.107.107,0,0,0,.005.021.1.1,0,0,0,.007.017l.02.04-.029.018-.009.006-.009.007-.018.016a.129.129,0,0,0-.025.03l-.006.01v0l-.012.025a.1.1,0,0,0-.007.019.11.11,0,0,0,0,.02l0,.031a.108.108,0,0,0,0,.017s0,.009,0,.012l0,.037a.084.084,0,0,0,0,.011l0,.012.012.039,0,.01,0,.01.018.037,0,.006.006.011.025.035.007.009.006.007.027.029.008.007.009.008.03.022,0,0,.006,0,.512.3.006,0h0a.128.128,0,0,0,.115,0h0l.006,0,.062.319,0,.009a.083.083,0,0,0,0,.011l.13.35,0,.008.005.011.183.33.005.008.007.009.225.288.007.008.008.009.251.227.012.009.009.006.261.151.009,0,.006,0h0l.047.018.021.006.017,0,.49.035h.012a.135.135,0,0,0,.046-.008L9.32,25.1l.008,0,.006,0h0l.332-.19,0,0,0,0,.061-.039.241.156,0,0,4.256,2.525.01.005h0l0,0,.012,0a.128.128,0,0,0,.04.006l.022,0h0l.008,0h0l.028.147,0,.009a.082.082,0,0,0,0,.011l.129.35,0,.007.006.013.183.329.006.009.006.008.225.288.007.007.009.009.251.227.013.01.012.007.259.149h0l.007,0,.01,0,.047.018a.1.1,0,0,0,.022.006l.016,0,.49.035h.012a.131.131,0,0,0,.045-.008h0l.166-.065.009,0,.006,0h0l.332-.191.006,0h0l.093-.06.291.168.005,0,.009,0,.029.012.018.006.02,0,.028,0h.014a.137.137,0,0,0,.033,0h0l.024-.007.016-.006.009,0h0L19.9,27.618l0,0,0,0,2.478-1.528.008-.005.012-.009.018-.016.008-.008a.127.127,0,0,0,.023-.034l.012-.025a.093.093,0,0,0,.006-.019.092.092,0,0,0,0-.02l0-.032s0-.008,0-.012a.1.1,0,0,0,0-.018l0-.037a.067.067,0,0,0,0-.012.073.073,0,0,0,0-.011l-.012-.039,0-.01,0-.009-.019-.039,0-.006-.007-.012-.023-.034-.006-.007-.007-.009-.029-.03-.008-.008-.011-.009-.029-.021-.008,0-.006,0h0l.021-.077.221-.741a.1.1,0,0,0,0-.025.1.1,0,0,0,0-.021.006.006,0,0,0,0,0Zm-.171,2.116-.006.013-.01.01-2.474,1.525L17.179,28.9l-.014,0H17.15l-.023-.01-.355-.205h0l-.125-.072h0l-.024-.011-.047-.167h0l-.047-.145v0a.023.023,0,0,0,0,0l-.083-.167-.1-.474a.04.04,0,0,0,0-.009v0h0l-.148-.234,0,0,0,0-.252-.281,0,0,0,0-.226-.173,0,0,0,0-.214-.1-.514-.26h0l-.243-.118h0l-.014-.007h0a.036.036,0,0,0-.025,0l-.162.053h0l-.007,0-.005,0,0,0-.166.186a.029.029,0,0,0,0,.006l0,.005-.123.314v0a.048.048,0,0,0,0,.007.033.033,0,0,0,0,.007.006.006,0,0,0,0,0v.011a.027.027,0,0,0,0,0,.039.039,0,0,0,0,.008s0,0,0,0l.053.3-1.711-1.015,1.285.739h0a.034.034,0,0,0,.016,0h0a.038.038,0,0,0,.017,0l0,0a.036.036,0,0,0,.01-.01l0,0v0a.034.034,0,0,0,0-.007.046.046,0,0,0,0-.007h0l.008-.207h0s0,0,0,0a.038.038,0,0,0,0-.006v-.011l.375-.632v0l0-.006.187-.694.393.267h0l.54.275h0l.079.037h0l.646.324h0l.98.453h0a.034.034,0,0,0,.014,0,.036.036,0,0,0,.015,0h0a.035.035,0,0,0,.012-.01h0l.037-.048.06.9-.219.735s0,0,0,0,0,0,0,.008a.03.03,0,0,0,0,.007s0,0,0,0l.046.168a.037.037,0,0,0,.036.027h.01a.038.038,0,0,0,.026-.046l-.043-.158.218-.731a.036.036,0,0,0,0-.008.029.029,0,0,0,0-.006h0l-.042-.632.006.027a.027.027,0,0,0,0,.007.016.016,0,0,0,0,0l.045.081h0a.037.037,0,0,0,.008.01h0l.065.055h0l0,0,.009,0h0l.081.023h.014l.092-.009h0l.077-.018H17.7l.085-.037,0,0,0,0,.067-.051h0l.064-.05,0,0,0,0,.058-.067,0,0,0,0,.047-.08v0l0,0,.033-.087s0,0,0,0v0l.017-.088a.009.009,0,0,0,0,0v0l0-.057h0l0-.108a.026.026,0,0,0,0,0s0,0,0,0l-.02-.095a.024.024,0,0,0,0-.005.028.028,0,0,0,0,0l-.032-.059h0l-.028-.051,1.737-1.036h0L20,25.177h0l1.56-.869-.011.043a.024.024,0,0,0,0,0v0l-.007.121s0,0,0,0a.039.039,0,0,0,0,0l.018.107a.034.034,0,0,0,0,.007v0l.041.085h0a.037.037,0,0,0,.007.01h0l.062.059h0l.007,0,.006,0h0l.079.028.012,0h0l.09,0h.007l.081-.02h0l.085-.033,0,0,.005,0,.084-.06h0l.055-.042,0,0,0,0,.059-.065,0,0,0,0,.049-.078v0l0,0,.035-.087v-.006h0l.023.345-.22.735h0l-.049.177h0l-.015.055a.037.037,0,0,0,.026.045h.01a.037.037,0,0,0,.036-.027l0-.008.048.028.026.019.024.025.021.031.015.032.01.032,0,.029ZM9.76,24.673h0l-.167-.108-.074-.076-.257-.372-.037-.261h0a.033.033,0,0,0,0-.008.018.018,0,0,0,0-.005v0L9.1,23.68l0,0,0,0-.055-.037-.078-.053-.634-.432h0L8.2,23.06h0l-.061-.042h0l-.159-.108-.515-.351h0l-.008,0H7.427l-.176.058h0l-.007,0-.005,0,0,.006,0,.005,0,.007a.024.024,0,0,0,0,.007v.162a.048.048,0,0,0,0,.007.043.043,0,0,0,0,.007v0l.035.064.109.246-.031.018-.082.047-.49-.283-.027-.019-.023-.024L6.7,22.839l-.015-.032-.01-.033,0-.028,0-.022.006-.013.01-.009.093-.058a.037.037,0,0,0,.031.018.041.041,0,0,0,.017,0,.037.037,0,0,0,.017-.05l-.016-.033-.07-.141-.148-.962-.038-.248L6.59,20.8l.535-.235h0l0,0,.006,0h0a.027.027,0,0,0,.005-.007l0,0a.044.044,0,0,0,0-.007.041.041,0,0,0,0-.007.038.038,0,0,0,0-.006.029.029,0,0,0,0-.008h0l0-.005,0-.005-.047-.05h0l-.361-.383.383.035,1.1.556.761.384.046.029h0l.937.485h0l.479.268h0l.42.228-.214.323v0l0,0-.258.59-1.382-.69-.441-.28-.007,0-.005,0-.093-.019H8.442l-.006,0-.007,0h0l0,0,0,.007,0,.007,0,0a.016.016,0,0,0,0,0,.033.033,0,0,0,0,.007.044.044,0,0,0,0,.007l0,.006,0,.006v0l.093.1,0,0,0,0,.321.2.126.085h0l.007,0h0l1.387.71v1.653a.028.028,0,0,0,0,.007.03.03,0,0,0,0,.007v0l.112.208h0l.031.06.019.05-.463-.275h0l-.311-.2Zm-.775-.718V24.1l-.027.105-.019.012-.059.012-.1.013-.116-.028h0l-.021-.005-.1-.055.073.018h.014l.077-.01h0l.061-.008h0l.076-.013a.037.037,0,1,0-.012-.073l-.076.013-.059.008h0l-.069.009-.074-.019-.081-.047L8.4,23.96l-.073-.094-.059-.107-.042-.113L8.2,23.535v-.1l.02-.08.04-.061.037-.048h0l.015-.017.6.407.04.108.032.167,0,.019v.024Zm5.151-6.6h0l.476.14,1.48.72,1.684.915.5.357.31.489-.008-.006h0l-.006,0-.007,0h-.017l-.149.046h0l-.5.222h0l-.537.282h0l-.506.274h0l-.474.292h0l-.532.335h0l-.5.353h0l-.209.16,0,0,0,0-.156.22h0a.038.038,0,0,0-.006.028l.438,2.417-.456-.238-.017-.106h0L14.639,22.5h0l-.056-.245v0s0,0,0,0l-.1-.286,0,0v0l-.062-.1,0,0v0l-.148-.172,0,0,0,0-.2-.173h0l-.091-.064h0l-.167-.1h0l-1.378-.771h0l-1.068-.542h0l-.077-.035h0L10.9,19.84H10.9l-.124-.025h0l-.041,0-.442-.1h-.005l-.148-.011h0l-.77-.017a.032.032,0,0,0-.022.005l-.5.179-.005,0-.006,0-.443.372h0l0,0a.034.034,0,0,0-.006.008h0l-.159.323L7.2,20.071l1.25-.7.711-.237h0l.253-.119h0l.283-.148h0l.542-.3h0l.551-.314h0l.979-.566h0l.517-.3h0l.454-.275h0l.181-.12,0,0,0,0L13,16.931l1.138.425Zm5.87,4.794h0l.417.28.7.553h0l1,.681-.184.093,0,0,0,0-.12.1h0l-.02.017h0l-.178.144-.207-.414h0l-.005-.007,0,0h0l-.778-.586-.606-.514h0l-.339-.313.268-.072.051.035Zm2.158,1.71.053.05.034.058.035.072.015.089V24.2h0l0,.082-.018.082-.033.081-.046.074-.053.059-.052.04h0l-.079.056-.079.031-.075.019-.08,0-.065-.023-.052-.049-.036-.075-.017-.1.007-.112.03-.12.05-.116.153-.2.016-.014.068-.048.085-.034.077,0Zm-4.958,2.881h0l0-.007,0-.005-.005-.006,0,0,0,0,0,0-1.073-.5-.679-.341h0l-.539-.274-.392-.249.261-.6h0l.16-.313.507.265h0a.036.036,0,0,0,.015,0h.014l.006,0,0,0h0l.471-.374.366.338h0l.607.515h0l.773.582.2.352-.054.012h0l0,0h0l-.007,0-.212.137,0,0,0,0-.046.045h0l-.093.092h0Zm-2.809-1.3-.191.711-.378.636v0a.029.029,0,0,0,0,.007.03.03,0,0,0,0,.007s0,0,0,0v.016h0a.04.04,0,0,0,0,0,.024.024,0,0,0,0,0l-.006.151-3.2-1.839-.028-.075v0L10.552,25h0l-.107-.2V23.2Zm-3.943-2.426.134-.307,0,0,0,0,.036.02.011,0h0l.014,0h.007l.012,0h.007l0,0,0,0,.285.164.01,0h0l.014,0h.008l.012,0h0l.007,0,0,0,0-.005,0,0v0l.03-.068s0,0,0-.005a.037.037,0,0,0,0-.008.038.038,0,0,0,0-.007.033.033,0,0,0,0-.007l0-.006,0-.006-.006-.005,0,0-.365-.211,0,0-.007,0-.014,0h-.006l.055-.125.216-.326,2.7,1.455,1.215.736h0l.007,0,.015.1-.172.338h0l-.257.588Zm6.889,3.842.182-.39.088-.087.058-.041.064-.028.079-.008.067.019.054.045.042.077h0l.029.053.018.085,0,.1h0l0,.055L18,26.823l-.031.081-.043.074-.053.062-.061.048h0l-.063.048-.079.035-.023.005a.036.036,0,0,0-.027,0l-.025.011-.079.008-.066-.019-.054-.045-.039-.072-.02-.094Zm.642-.646V26.2l.005-.049a.031.031,0,0,0,0,0,.026.026,0,0,0,0-.005.006.006,0,0,0,0,0h0l0-.006v-.006h0l-.23-.4a.037.037,0,0,0-.01-.012l-.778-.586-.606-.514h0L16,24.288l1.583-1.038.332-.191h0l1.684-.847.371.343h0l.607.515h0l.772.581.22.439v.046L19.85,25.161h0ZM15.817,28.1l-.075.012-.059.008h0l-.069.009-.074-.019-.08-.046-.08-.073-.073-.093-.059-.107-.042-.114-.021-.111v-.1l.02-.08.041-.062.037-.047.049-.058a.037.037,0,0,0-.057-.048l-.05.059h0l-.038.048h0l-.044.068a.04.04,0,0,0,0,.007l0,0-.012.046v-.076l.031-.122h0l.007-.022.059-.09.041-.045.037-.024.069.017.137.079.136.123.122.156.1.181.071.19.032.168h0l0,.019v.024h0v.145l-.027.105-.019.012-.059.012-.1.013-.116-.029h0l-.02-.005-.1-.055.073.018h.014l.077-.01h0l.06-.008h0l.076-.013a.037.037,0,0,0,.031-.043A.037.037,0,0,0,15.817,28.1ZM12.988,16.851h0Zm-.007,0h0Zm-1.5.346h0Zm-4.89,3.286h0Zm-.04,0h0Z" transform="translate(-6.244 -16.758)"/>
    <path id="Path_56" data-name="Path 56" class="cls-1" d="M73.612,61.343l0-.007,0,0-.066-.066,0,0-.006,0-.009,0H73.5l-.652.215,0,0h0L71.92,62h0l-1.02.6,0,0h0l-.682.556,0,0,0,.006,0,.006,0,0-.044.13a.047.047,0,0,0,0,.005.045.045,0,0,0,0,.007.047.047,0,0,0,0,.007.043.043,0,0,0,0,.007l0,.007,0,0,.074.079h0a.036.036,0,0,0,.012.008h0l.013,0a.037.037,0,0,0,.016,0h0l1.718-.9h0l1.558-.992h0l.009-.009h0a.036.036,0,0,0,.005-.012l.037-.143a.035.035,0,0,0,0,0,.037.037,0,0,0,0-.008.044.044,0,0,0,0-.007Z" transform="translate(-58.252 -52.968)"/>
  </g>
</svg>
