<?xml version="1.0" encoding="utf-8"?>
<!-- Generator: Adobe Illustrator 19.0.1, SVG Export Plug-In . SVG Version: 6.00 Build 0)  -->
<svg version="1.1" id="Layer_1" xmlns="http://www.w3.org/2000/svg" xmlns:xlink="http://www.w3.org/1999/xlink" x="0px" y="0px"
	 viewBox="1039.7 146.3 309.3 357.2" style="enable-background:new 1039.7 146.3 309.3 357.2;" xml:space="preserve">
<style type="text/css">
	.st0{fill:#E41459;}
	.st1{fill:#CB0E57;}
	.st2{fill:#FC306F;}
	.st3{fill:#A10541;}
	.st4{fill:#A60643;}
	.st5{fill:#BE094C;}
	.st6{fill:#FF527F;}
	.st7{fill:#C30D4E;}
</style>
<polygon class="st0" points="1349,414.2 1349,235.6 1194.3,146.3 1039.7,235.6 1039.7,414.2 1194.3,503.5 "/>
<g>
	<polygon class="st1" points="1039.7,414.2 1194.3,503.5 1091.2,414.2 	"/>
	<polygon class="st2" points="1039.7,235.6 1039.7,414.2 1091.2,414.2 	"/>
	<polygon class="st1" points="1194.3,235.6 1349,235.6 1194.3,146.3 	"/>
	<polygon class="st0" points="1194.3,235.6 1091.2,414.2 1296.4,414.2 	"/>
	<polygon class="st3" points="1296.4,414.2 1349,414.2 1349,235.6 	"/>
	<polygon class="st4" points="1194.3,503.5 1349,414.2 1296.4,414.2 	"/>
	<path d="M1349,235.6L1349,235.6L1349,235.6z"/>
	<path d="M1194.3,235.6L1194.3,235.6L1194.3,235.6z"/>
	<polygon class="st5" points="1296.4,414.2 1349,235.6 1349,235.6 1194.3,235.6 	"/>
	<polygon class="st2" points="1194.3,146.3 1039.7,235.6 1194.3,235.6 	"/>
	<polygon class="st6" points="1194.3,235.6 1039.7,235.6 1091.2,414.2 	"/>
	<polygon class="st7" points="1091.2,414.2 1194.3,503.5 1296.4,414.2 	"/>
</g>
</svg>
