<svg xmlns="http://www.w3.org/2000/svg" viewBox="0 0 12.109 11.177">
  <defs>
    <style>
      .cls-1 {
        fill: #6a6a6a;
      }
    </style>
  </defs>
  <g id="_ionicons_svg_ios-open" transform="translate(-48 -63.999)">
    <path id="Path_50" data-name="Path 50" class="cls-1" d="M53.234,148.547a.378.378,0,0,1,0-.536l3.892-3.892a1.151,1.151,0,0,0-.509-.119H49.164A1.168,1.168,0,0,0,48,145.164v6.52a1.168,1.168,0,0,0,1.164,1.164h7.452a1.168,1.168,0,0,0,1.164-1.164v-6.52a1.151,1.151,0,0,0-.119-.509l-3.892,3.892A.378.378,0,0,1,53.234,148.547Z" transform="translate(0 -77.673)"/>
    <path id="Path_51" data-name="Path 51" class="cls-1" d="M342.409,64.13A.454.454,0,0,0,342.1,64H339.28a.378.378,0,1,0-.006.757l1.959.015-1.677,1.677a1.164,1.164,0,0,1,.536.536l1.677-1.677.015,1.959a.378.378,0,0,0,.757-.006V64.406A.414.414,0,0,0,342.409,64.13Z" transform="translate(-282.431)"/>
  </g>
</svg>
