<svg id="noun_Rotate_1978701" xmlns="http://www.w3.org/2000/svg" viewBox="0 0 13.133 13.127">
  <defs>
    <style>
      .cls-1 {
        fill: #707070;
      }
    </style>
  </defs>
  <path id="Path_66" data-name="Path 66" class="cls-1" d="M1.012,284.8,1.7,284.1c-.477-.273-.743-.563-.743-.812,0-.729,2.183-1.789,5.6-1.789h.245l.922-.936c-.387-.028-.781-.045-1.168-.045-3.181,0-6.563.967-6.563,2.764A1.9,1.9,0,0,0,1.012,284.8Z" transform="translate(0 -276.926)"/>
  <path id="Path_67" data-name="Path 67" class="cls-1" d="M310.364.96c.722,0,1.751,1.91,1.882,4.96l1.036-.256c-.2-2.9-1.192-5.665-2.919-5.665-1.3,0-2.193,1.582-2.625,3.6l1.119-.28C309.242,1.827,309.867.96,310.364.96Zm1.585,8.484c-.387,1.727-1.071,2.722-1.6,2.722s-1.178-.967-1.568-2.615l-.995.249c.452,1.883,1.323,3.327,2.573,3.327,1.382,0,2.293-1.772,2.7-3.959Z" transform="translate(-303.794)"/>
  <path id="Path_68" data-name="Path 68" class="cls-1" d="M137.814,384.677l1.482-2.563h-2.96Zm-7.119.273,2.069,2.117.8-2.85Z" transform="translate(-129.019 -377.215)"/>
  <path id="Path_69" data-name="Path 69" class="cls-1" d="M260.528,361.634l-.715.725c.691.321,1.088.691,1.088.991,0,.729-2.183,1.789-5.6,1.789a14.3,14.3,0,0,1-2.535-.217l-.8.815a14.771,14.771,0,0,0,3.34.373c3.181,0,6.563-.967,6.563-2.763A2.087,2.087,0,0,0,260.528,361.634Z" transform="translate(-248.728 -356.998)"/>
</svg>
