<svg id="Group_29" data-name="Group 29" xmlns="http://www.w3.org/2000/svg" viewBox="0 0 30.589 30.574">
  <defs>
    <style>
      .cls-1 {
        fill: #fff;
      }
    </style>
  </defs>
  <g id="noun_Rotate_1978701" transform="translate(0 0)">
    <path id="Path_66" data-name="Path 66" class="cls-1" d="M2.357,290.475l1.609-1.609c-1.11-.636-1.73-1.312-1.73-1.891,0-1.7,5.085-4.168,13.05-4.168h.571l2.148-2.181c-.9-.064-1.818-.1-2.719-.1C7.877,280.522,0,282.775,0,286.959A4.423,4.423,0,0,0,2.357,290.475Z" transform="translate(0 -272.147)"/>
    <path id="Path_67" data-name="Path 67" class="cls-1" d="M313.854,2.237c1.681,0,4.079,4.449,4.385,11.554l2.414-.6c-.467-6.759-2.776-13.2-6.8-13.2-3.033,0-5.109,3.685-6.115,8.384l2.607-.652C311.239,4.256,312.7,2.237,313.854,2.237ZM317.546,22c-.9,4.023-2.494,6.34-3.717,6.34s-2.744-2.253-3.653-6.091l-2.317.579c1.054,4.385,3.081,7.748,5.994,7.748,3.218,0,5.342-4.128,6.283-9.221Z" transform="translate(-298.551)"/>
    <path id="Path_68" data-name="Path 68" class="cls-1" d="M147.276,388.084l3.451-5.97h-6.895Zm-16.582.636,4.819,4.932,1.867-6.638Z" transform="translate(-126.793 -370.705)"/>
    <path id="Path_69" data-name="Path 69" class="cls-1" d="M271.919,361.634l-1.665,1.69c1.609.748,2.534,1.609,2.534,2.309,0,1.7-5.085,4.167-13.049,4.167a33.3,33.3,0,0,1-5.905-.507l-1.875,1.9a34.408,34.408,0,0,0,7.78.869c7.41,0,15.286-2.253,15.286-6.437C275.024,363.991,273.818,362.656,271.919,361.634Z" transform="translate(-244.435 -350.836)"/>
  </g>
</svg>
