<svg id="Group_21" data-name="Group 21" xmlns="http://www.w3.org/2000/svg" viewBox="0 0 10.452 10.469">
  <defs>
    <style>
      .cls-1 {
        fill: #707070;
      }
    </style>
  </defs>
  <g id="noun_Expand_proportionally_1691340" data-name="noun_Expand proportionally_1691340" transform="translate(0)">
    <g id="Group_23" data-name="Group 23">
      <path id="Path_75" data-name="Path 75" class="cls-1" d="M17.464,63.565,16.2,64.832l-1.221-1.221L14.6,66.742l3.131-.376-1.221-1.221,1.267-1.267a.222.222,0,0,0-.313-.313Z" transform="translate(-14.6 -56.273)"/>
      <rect id="Rectangle_290" data-name="Rectangle 290" class="cls-1" width="3.346" height="3.345" transform="translate(3.553 3.553)"/>
      <path id="Path_76" data-name="Path 76" class="cls-1" d="M65.084,64.713l-1.266-1.267a.221.221,0,0,0-.313.313l1.267,1.267L63.55,66.247l3.132.376-.376-3.131Z" transform="translate(-56.23 -56.172)"/>
      <path id="Path_77" data-name="Path 77" class="cls-1" d="M63.66,17.782a.221.221,0,0,0,.157-.065l1.266-1.266L66.3,17.672l.376-3.131-3.132.376,1.221,1.221L63.5,17.4a.222.222,0,0,0,.157.378Z" transform="translate(-56.229 -14.541)"/>
      <path id="Path_78" data-name="Path 78" class="cls-1" d="M16.51,16.138l1.221-1.221L14.6,14.541l.376,3.131L16.2,16.451l1.267,1.267a.221.221,0,0,0,.313-.313Z" transform="translate(-14.6 -14.541)"/>
    </g>
  </g>
</svg>
