<svg id="Group_30" data-name="Group 30" xmlns="http://www.w3.org/2000/svg" viewBox="0 0 30.506 30.557">
  <defs>
    <style>
      .cls-1 {
        fill: #fff;
      }
    </style>
  </defs>
  <g id="noun_Expand_proportionally_1691340" data-name="noun_Expand proportionally_1691340" transform="translate(0)">
    <g id="Group_23" data-name="Group 23">
      <path id="Path_75" data-name="Path 75" class="cls-1" d="M22.959,63.69l-3.7,3.7L15.7,63.822l-1.1,9.14,9.14-1.1L20.176,68.3l3.7-3.7a.647.647,0,0,0-.914-.914Z" transform="translate(-14.6 -42.405)"/>
      <rect id="Rectangle_290" data-name="Rectangle 290" class="cls-1" width="9.765" height="9.764" transform="translate(10.372 10.37)"/>
      <path id="Path_76" data-name="Path 76" class="cls-1" d="M68.239,67.268l-3.7-3.7a.646.646,0,0,0-.914.914l3.7,3.7-3.565,3.565,9.141,1.1L71.8,63.7Z" transform="translate(-42.396 -42.338)"/>
      <path id="Path_77" data-name="Path 77" class="cls-1" d="M64.085,24a.644.644,0,0,0,.457-.189l3.7-3.7L71.8,23.681l1.1-9.14-9.141,1.1L67.324,19.2l-3.7,3.7a.647.647,0,0,0,.457,1.1Z" transform="translate(-42.395 -14.541)"/>
      <path id="Path_78" data-name="Path 78" class="cls-1" d="M20.176,19.2l3.564-3.564-9.14-1.1,1.1,9.14,3.565-3.565,3.7,3.7a.646.646,0,0,0,.914-.914Z" transform="translate(-14.6 -14.541)"/>
    </g>
  </g>
</svg>
