<svg xmlns="http://www.w3.org/2000/svg" viewBox="0 0 18.615 18.615">
  <defs>
    <style>
      .cls-1 {
        fill: none;
        stroke: #707070;
        stroke-width: 0.8px;
      }
    </style>
  </defs>
  <g id="Group_5" data-name="Group 5" transform="translate(0.4 0.4)">
    <g id="noun_sky_1518292">
      <path id="Path_58" data-name="Path 58" class="cls-1" d="M9.767.2a8.907,8.907,0,1,0,8.907,8.907A8.907,8.907,0,0,0,9.767.2Zm.1,4.284a.24.24,0,1,1-.24.24.24.24,0,0,1,.24-.24ZM6.529,5.667a.24.24,0,1,1,0,.338.24.24,0,0,1,0-.338ZM5.385,9.24A.24.24,0,1,1,5.625,9a.24.24,0,0,1-.24.24Zm1.49,3.108a.24.24,0,1,1,0-.338.24.24,0,0,1,0,.338Zm2.723.167a3.487,3.487,0,0,1-.065-6.932.1.1,0,0,1,.111.087v.363a.3.3,0,0,1-.133.249,3.36,3.36,0,0,0,.053,5.576A.3.3,0,0,1,9.7,12.1v.329a.1.1,0,0,1-.1.074Zm.28,1.216a.251.251,0,1,0-.009,0Zm1.536-1.715a2.957,2.957,0,0,1-1.979-.761L9.4,11.222a2.544,2.544,0,0,1-.2-.2l-.034-.038q-.047-.054-.093-.113l-.06-.08c-.038-.053-.076-.107-.111-.162s-.045-.073-.067-.109-.036-.062-.053-.094c-.033-.062-.064-.127-.093-.191l-.033-.089c-.029-.071-.054-.142-.078-.212l-.015-.047c-.022-.071-.04-.143-.056-.216A.1.1,0,0,0,8.5,9.614a2.45,2.45,0,0,1-.038-.25V9.309c0-.089-.015-.182-.015-.272a2.986,2.986,0,0,1,.02-.336.912.912,0,0,1,.015-.1c.011-.078.025-.154.042-.231a.338.338,0,0,1,.027-.1q.031-.113.069-.223c.011-.029.02-.056.031-.085q.049-.127.109-.247l.02-.042a2.972,2.972,0,1,1,2.634,4.342Z" transform="translate(-0.86 -0.2)"/>
    </g>
  </g>
</svg>
