<svg xmlns="http://www.w3.org/2000/svg" viewBox="0 0 15.814 15.814">
  <defs>
    <style>
      .cls-1 {
        fill: #707070;
        stroke: #707070;
        stroke-width: 0.5px;
      }
    </style>
  </defs>
  <g id="noun_Exposure_1543315" transform="translate(0 -3)">
    <path id="Path_52" data-name="Path 52" class="cls-1" d="M7.717,7.914l2.3,2.3a4.641,4.641,0,0,0-1.266,3.052H5.5v.279H8.753A4.639,4.639,0,0,0,10.018,16.6l-2.3,2.3.2.2,2.3-2.3a4.641,4.641,0,0,0,3.052,1.267v3.252h.279V18.062A4.639,4.639,0,0,0,16.6,16.8l2.3,2.3.2-.2-2.3-2.3a4.641,4.641,0,0,0,1.266-3.052h3.253v-.279H18.062A4.639,4.639,0,0,0,16.8,10.216l2.3-2.3-.2-.2-2.3,2.3a4.641,4.641,0,0,0-3.051-1.266V5.5h-.279V8.753a4.639,4.639,0,0,0-3.052,1.266l-2.3-2.3Zm5.551,1.117c.047,0,.093,0,.14,0s.093,0,.14,0A4.362,4.362,0,0,1,16.4,10.215q.1.1.2.2a4.362,4.362,0,0,1,1.185,2.855c0,.047,0,.093,0,.14s0,.093,0,.14A4.362,4.362,0,0,1,16.6,16.4q-.1.1-.2.2a4.362,4.362,0,0,1-2.854,1.184c-.047,0-.093,0-.14,0s-.093,0-.14,0A4.363,4.363,0,0,1,10.413,16.6q-.1-.1-.2-.2a4.361,4.361,0,0,1-1.184-2.854c0-.047,0-.093,0-.14s0-.093,0-.14a4.362,4.362,0,0,1,1.184-2.854q.1-.1.2-.2A4.364,4.364,0,0,1,13.268,9.032Z" transform="translate(-5.5 -2.5)"/>
  </g>
</svg>
