<svg xmlns="http://www.w3.org/2000/svg" viewBox="0 0 16.899 18.928">
  <defs>
    <style>
      .cls-1 {
        fill: #707070;
        stroke: #838383;
        stroke-width: 0.7px;
      }
    </style>
  </defs>
  <path id="noun_text_89373_000000" class="cls-1" d="M35.513,17.3H20.985a.892.892,0,0,0-.885.885v4.637a.892.892,0,0,0,.885.885h2.171a.892.892,0,0,0,.885-.885V21.24h2.2V31.668H24.2a.835.835,0,0,0-.831.831v2.279a.835.835,0,0,0,.831.831h5.9c.027,0,0,.027,0,0h2.091a.835.835,0,0,0,.831-.831V32.5a.835.835,0,0,0-.831-.831H30.206V21.24h2.252v1.582a.892.892,0,0,0,.885.885h2.171a.892.892,0,0,0,.885-.885V18.185A.859.859,0,0,0,35.513,17.3Zm.563,5.522a.55.55,0,0,1-.563.563H33.342a.55.55,0,0,1-.563-.563V21.08a.173.173,0,0,0-.161-.161H30.045a.173.173,0,0,0-.161.161V31.829a.173.173,0,0,0,.161.161h2.171a.527.527,0,0,1,.509.509v2.279a.527.527,0,0,1-.509.509H30.045c-.027,0,.027-.027,0,0h-5.87a.527.527,0,0,1-.509-.509V32.5a.527.527,0,0,1,.509-.509H26.4a.173.173,0,0,0,.161-.161V21.08a.173.173,0,0,0-.161-.161H23.853a.173.173,0,0,0-.161.161v1.742a.55.55,0,0,1-.563.563H20.958a.55.55,0,0,1-.563-.563V18.185a.55.55,0,0,1,.563-.563H35.487a.55.55,0,0,1,.563.563v4.637Z" transform="translate(-19.8 -17)"/>
</svg>
