<svg xmlns="http://www.w3.org/2000/svg" viewBox="0 0 5.75 8">
  <defs>
    <style>
      .cls-1 {
        fill: #707070;
      }
    </style>
  </defs>
  <path id="_ionicons_svg_ios-trash_1_" data-name="_ionicons_svg_ios-trash (1)" class="cls-1" d="M118.315,65.333l.492,6.056a.61.61,0,0,0,.61.61h2.937a.61.61,0,0,0,.61-.61l.485-6.056Zm1.283,5.521L119.458,66h.385l.144,4.854Zm1.465,0h-.375V66h.375Zm1.09,0h-.387L121.906,66h.385Zm.973-6.271h-.75l-.548-.479a.422.422,0,0,0-.275-.1H120.2a.429.429,0,0,0-.279.1l-.548.479h-.75c-.367,0-.625.175-.625.542h5.75C123.75,64.758,123.492,64.583,123.125,64.583Z" transform="translate(-118 -64)"/>
</svg>
