<svg id="noun_Walk_1195241" xmlns="http://www.w3.org/2000/svg" viewBox="0 0 20.859 30.37">
  <defs>
    <style>
      .cls-1 {
        fill: #fff;
      }
    </style>
  </defs>
  <path id="Path_80" data-name="Path 80" class="cls-1" d="M32.252,6.573A3.909,3.909,0,0,1,35.8,12.092a3.809,3.809,0,0,1-2.977,2.241h0a.655.655,0,0,0-.468.669c.033.736.234,3.679,3.412,3.679h.1A1.739,1.739,0,0,1,37.6,19.919a1.715,1.715,0,0,1-1.371,2.141,10.94,10.94,0,0,1-1.472.134,2.531,2.531,0,0,1-.5-.033,3.306,3.306,0,0,1-2.174-1.137c-.033-.033-.033-.033-.067-.033a.089.089,0,0,0-.1.1,7.6,7.6,0,0,0,.134,1.371.284.284,0,0,0,.1.167c2.977,2.107,4.883,7.291,4.95,7.592a2.072,2.072,0,0,1-1.639,2.408,1.138,1.138,0,0,1-.334.033,2.288,2.288,0,0,1-2.074-1.639,13.486,13.486,0,0,0-3.412-5.151.361.361,0,0,0-.234-.1.292.292,0,0,0-.3.2,34.613,34.613,0,0,1-4.181,6.321,2.323,2.323,0,0,1-1.706.736,1.7,1.7,0,0,1-1.171-.435,2.1,2.1,0,0,1-.3-2.876c2.007-2.442,4.114-5.92,4.214-7.158a27.909,27.909,0,0,0,.1-3.679.153.153,0,0,0-.134-.167.123.123,0,0,0-.1.033,24.777,24.777,0,0,0-1.94,2.743,1.563,1.563,0,0,1-1.505.97,1.372,1.372,0,0,1-.368-.033,1.2,1.2,0,0,1-.368-.134,1.724,1.724,0,0,1-.8-2.274c.134-.268,2.776-5.686,7.726-6.623a.525.525,0,0,0,.334-.8,3.894,3.894,0,0,1-.234-3.78,3.993,3.993,0,0,1,3.579-2.241m0-1.973h0a5.891,5.891,0,0,0-5.719,7.325c-4.716,1.806-7.191,6.656-7.459,7.258A3.677,3.677,0,0,0,20.78,24.1a2.523,2.523,0,0,0,.8.268,3,3,0,0,0,.769.067,3.7,3.7,0,0,0,.635-.067,34.462,34.462,0,0,1-2.81,4.047A4.111,4.111,0,0,0,20.646,34a3.65,3.65,0,0,0,2.542.97,4.282,4.282,0,0,0,3.244-1.438,46.807,46.807,0,0,0,3.278-4.616,13.028,13.028,0,0,1,1.4,2.642,4.282,4.282,0,0,0,3.98,3.077,4.989,4.989,0,0,0,.7-.067,4.026,4.026,0,0,0,3.177-4.716A21.954,21.954,0,0,0,36.132,24.1c.1-.033.234-.033.334-.067a3.7,3.7,0,0,0,2.977-4.616A3.773,3.773,0,0,0,35.8,16.674h-.1a1.11,1.11,0,0,1-1.271-.8,5.712,5.712,0,0,0,3.111-3.01,5.871,5.871,0,0,0-1.706-7.024A5.6,5.6,0,0,0,32.252,4.6Z" transform="translate(-18.71 -4.6)"/>
</svg>
