<svg id="noun_Walk_1195241" xmlns="http://www.w3.org/2000/svg" viewBox="0 0 7.449 10.845">
  <defs>
    <style>
      .cls-1 {
        fill: #707070;
      }
    </style>
  </defs>
  <path id="Path_80" data-name="Path 80" class="cls-1" d="M23.546,5.3a1.393,1.393,0,0,1,.2,2.771h0a.234.234,0,0,0-.167.239A1.214,1.214,0,0,0,24.8,9.629h.036a.621.621,0,0,1,.621.442.612.612,0,0,1-.49.764,3.907,3.907,0,0,1-.526.048.9.9,0,0,1-.179-.012,1.181,1.181,0,0,1-.776-.406c-.012-.012-.012-.012-.024-.012a.032.032,0,0,0-.036.036,2.714,2.714,0,0,0,.048.49.1.1,0,0,0,.036.06,6.405,6.405,0,0,1,1.768,2.711.74.74,0,0,1-.585.86.406.406,0,0,1-.119.012.817.817,0,0,1-.741-.585A4.816,4.816,0,0,0,22.614,12.2a.129.129,0,0,0-.084-.036.1.1,0,0,0-.107.072A12.361,12.361,0,0,1,20.93,14.49a.829.829,0,0,1-.609.263A.607.607,0,0,1,19.9,14.6.749.749,0,0,1,19.8,13.57a7.771,7.771,0,0,0,1.5-2.556A9.967,9.967,0,0,0,21.336,9.7a.055.055,0,0,0-.048-.06.044.044,0,0,0-.036.012,8.848,8.848,0,0,0-.693.979.558.558,0,0,1-.537.346.49.49,0,0,1-.131-.012.428.428,0,0,1-.131-.048.616.616,0,0,1-.287-.812,4.476,4.476,0,0,1,2.759-2.365.188.188,0,0,0,.119-.287,1.39,1.39,0,0,1-.084-1.35,1.426,1.426,0,0,1,1.278-.8m0-.7h0A2.1,2.1,0,0,0,21.5,7.216,5.449,5.449,0,0,0,18.84,9.808a1.313,1.313,0,0,0,.609,1.756.9.9,0,0,0,.287.1,1.07,1.07,0,0,0,.275.024,1.323,1.323,0,0,0,.227-.024,12.307,12.307,0,0,1-1,1.445A1.468,1.468,0,0,0,19.4,15.1a1.3,1.3,0,0,0,.908.346,1.529,1.529,0,0,0,1.159-.514,16.715,16.715,0,0,0,1.171-1.648,4.652,4.652,0,0,1,.5.944,1.529,1.529,0,0,0,1.421,1.1,1.782,1.782,0,0,0,.251-.024,1.438,1.438,0,0,0,1.135-1.684,7.84,7.84,0,0,0-1.015-2.054c.036-.012.084-.012.119-.024a1.322,1.322,0,0,0,1.063-1.648,1.347,1.347,0,0,0-1.3-.979h-.036a.4.4,0,0,1-.454-.287A2.04,2.04,0,0,0,25.433,7.55a2.1,2.1,0,0,0-.609-2.508A2,2,0,0,0,23.546,4.6Z" transform="translate(-18.71 -4.6)"/>
</svg>
